<svg xmlns="http://www.w3.org/2000/svg" viewBox="0 0 500 500"><g id="freepik--Floor--inject-1--inject-211"><path d="M92.5,376.44c87,47.41,228,47.42,315,0s87-124.3,0-171.72-228-47.42-315,0S5.51,329,92.5,376.44Z" style="fill:#f5f5f5"></path></g><g id="freepik--Shadow--inject-1--inject-211"><path d="M138.87,359.23l60.61,35c9.86,5.69,25.85,5.69,35.71,0l148.56-85.77c9.86-5.69,9.86-14.92,0-20.62l-60.61-35c-9.87-5.69-25.86-5.69-35.72,0L138.87,338.61C129,344.3,129,353.53,138.87,359.23Z" style="fill:#ebebeb"></path></g><g id="freepik--Character--inject-1--inject-211"><path d="M376.48,298.14c-.62-3.29-1.74-8.66-5.63-12.91a52.81,52.81,0,0,0-14.67-11c-5.46-2.78-8.44-10.27,1.9-10,9.54.28,18.61,11,19.68,20.12Z" style="fill:#37474f"></path><path d="M377.33,289.48a.51.51,0,0,1-.51-.47c-1.15-14.61-16.91-21.5-20-21.79a.51.51,0,1,1,.09-1c3.42.31,19.76,7.24,21,22.73a.51.51,0,0,1-.47.55Z" style="fill:#fff"></path><path d="M384.85,298.14c.59-2.3,2.94-6.17,6-7.25s9.75.48,12.77-4.35.34-11.49.84-14.22,2.42-5,6.23-7.62,5.64-7.67,3.48-10.08-6.05-2.71-11.16.81-5.28,2.61-9.78,2.2-8.51,4.29-9.22,10.83Z" style="fill:#455a64"></path><path d="M384.51,286.57l-.12,0a.5.5,0,0,1-.38-.61c3.27-14.47,19.77-27.85,25.79-30.12a.51.51,0,0,1,.36,1c-5.87,2.22-22,15.26-25.15,29.39A.51.51,0,0,1,384.51,286.57Z" style="fill:#fff"></path><path d="M392.22,271.69a.52.52,0,0,1-.48-.32c-1.62-4-1.31-9.3-1.3-9.53a.52.52,0,0,1,1,.07s-.31,5.31,1.23,9.07a.51.51,0,0,1-.29.67A.43.43,0,0,1,392.22,271.69Z" style="fill:#fff"></path><path d="M400,281.75c-2.26,0-8.06-.31-12.6-3.29a.51.51,0,0,1,.56-.86c5.35,3.51,12.85,3.11,12.93,3.1a.51.51,0,0,1,.54.49.51.51,0,0,1-.48.54C400.83,281.74,400.49,281.75,400,281.75Z" style="fill:#fff"></path><path d="M213.15,392.44c-1.16-4.17-5.08-7.77-11.57-11.51s-17.6-8.56-15-15.09,13.91-1.27,18.14,2.42c5.54,4.84,9.83,12,9.95,16.93Z" style="fill:#37474f"></path><path d="M214.2,388.12a.52.52,0,0,1-.51-.41c-2.4-11.41-15.92-20.23-22.49-21.76a.52.52,0,0,1-.39-.62.53.53,0,0,1,.62-.39c6.8,1.59,20.78,10.73,23.27,22.56a.51.51,0,0,1-.4.61Z" style="fill:#fff"></path><path d="M221.52,392.44c.52-4.54,4.29-7.24,8.88-8.32s8.67-1.81,9-6.85-4.28-9.19-.58-13.52,9.34-8.86,8.95-16.46-7.45-8.39-10.2-3.6-3.32,8.11-7.19,7.65-10.07,2.07-10.85,13.64Z" style="fill:#455a64"></path><path d="M220.83,383.28h-.07a.52.52,0,0,1-.44-.58c1.53-11.33,9.47-21,15.27-28.06,2.49-3,4.64-5.65,5.57-7.57a.51.51,0,0,1,.68-.25.53.53,0,0,1,.25.69c-1,2-3.17,4.7-5.71,7.79-5.72,7-13.55,16.49-15,27.54A.51.51,0,0,1,220.83,383.28Z" style="fill:#fff"></path><path d="M227,367.08a.5.5,0,0,1-.48-.34,33.34,33.34,0,0,1-1.29-9.79.53.53,0,0,1,.53-.51.51.51,0,0,1,.5.53,32.65,32.65,0,0,0,1.23,9.43.5.5,0,0,1-.32.65A.47.47,0,0,1,227,367.08Z" style="fill:#fff"></path><path d="M234.09,377h0a34.56,34.56,0,0,1-11-2.46.5.5,0,0,1-.29-.66.51.51,0,0,1,.66-.3A34.32,34.32,0,0,0,234.1,376a.51.51,0,0,1,.5.53A.5.5,0,0,1,234.09,377Z" style="fill:#fff"></path><path d="M140.13,317.49c.24-.1,1-16.15-5.92-25.61s-15.27-10.55-20.77-8.25-4.38,7.95,2.39,11.34,15.2,9.3,17.21,20.1Z" style="fill:#37474f"></path><path d="M137.59,312.78a.52.52,0,0,1-.51-.43c-2.59-16.3-12.23-24.29-20.38-26.33a.51.51,0,0,1-.38-.62A.52.52,0,0,1,117,285c8.47,2.12,18.48,10.37,21.15,27.16a.51.51,0,0,1-.43.59Z" style="fill:#fff"></path><path d="M138.89,347.29c-1-4.23-5.31-7-10.34-7.48-5.23-.47-11.31-1-12.93-5.4s0-10.39-.73-13.32c-.89-3.55-2.25-5.66-9.12-7.82-6.15-1.93-9.55-7.81-3.35-10.29s12.41-.91,16.63,1,4.4,3.88,10.34,3.37,10.37,3.22,10.74,6.82Z" style="fill:#455a64"></path><path d="M138.89,332.94a.53.53,0,0,1-.49-.34c-4.88-13.6-24.84-25.91-31.48-26.69a.52.52,0,0,1-.45-.57.52.52,0,0,1,.57-.46c6.82.81,27.33,13.43,32.33,27.37a.51.51,0,0,1-.31.66Z" style="fill:#fff"></path><path d="M134.21,324.77h-.11a.52.52,0,0,1-.39-.62c1.64-7.09,0-11.65,0-11.7a.52.52,0,0,1,1-.35c.07.19,1.73,4.88,0,12.28A.52.52,0,0,1,134.21,324.77Z" style="fill:#fff"></path><path d="M137.59,330a.5.5,0,0,1-.24-.06c-4-2.17-12.7-.62-12.79-.61a.51.51,0,1,1-.19-1c.37-.07,9.14-1.63,13.47.71a.52.52,0,0,1-.25,1Z" style="fill:#fff"></path><path d="M227.61,146.74c-3.83-3.6-10.76-5-19.46.33s-15.58,22.38-17.74,34.44-3.52,27.81.8,34.49,20,13.76,20,13.76l1.9-6.57Z" style="fill:#3EB4F7"></path><path d="M227.61,146.74c-3.83-3.6-10.76-5-19.46.33s-15.58,22.38-17.74,34.44-3.52,27.81.8,34.49,20,13.76,20,13.76l1.9-6.57Z" style="fill:#fff;opacity:0.4"></path><path d="M195.51,214c6.79,8.13,17.64,9.23,17.64,9.23L255,199l-16.76-9.67Z" style="fill:#3EB4F7"></path><path d="M195.51,214c6.79,8.13,17.64,9.23,17.64,9.23L255,199l-16.76-9.67Z" style="opacity:0.2"></path><path d="M195.51,214c-2.75-3.26-3.31-11.65-1.82-24.62,1.62-14.24,6.89-36.27,19.45-43.53,14.73-8.5,29.69,12.62,25.13,43.53Z" style="fill:#3EB4F7"></path><path d="M293.55,282.92c7.73,8.76,13.39,10.5,15.46,12.37s1.25,5.91-3.37,7.2-9.81.53-13.06-2.26-5.66-6.6-8.92-8.58-4.88-2.45-5.54-5,1.1-10.5,1.1-10.5Z" style="fill:#263238"></path><path d="M289.12,269c-.41,3.42-.91,6.43,1.69,10.32a37.27,37.27,0,0,0,2.74,3.59c4.52,5.21,8.19,9.27,8.84,10s-2.66,3.38-6.76,2-7.95-7-10.81-10.33c-1.27-1.49-2.51-2.84-3.49-3.88a7.83,7.83,0,0,1-2.15-5.12l-.19-5.4Z" style="fill:#ffa8a7"></path><path d="M270.08,297.25c7.73,8.77,13.38,10.5,15.46,12.37s1.25,5.92-3.37,7.21-9.81.53-13.07-2.27-5.65-6.59-8.91-8.57-4.89-2.45-5.54-5,1.1-10.5,1.1-10.5Z" style="fill:#263238"></path><path d="M265.64,283.34c-.4,3.43-.91,6.43,1.7,10.32a36.07,36.07,0,0,0,2.74,3.59c4.52,5.22,8.18,9.28,8.83,10s-2.65,3.38-6.76,2-7.95-7-10.8-10.32c-1.27-1.5-2.51-2.84-3.49-3.88a7.85,7.85,0,0,1-2.15-5.12l-.2-5.41Z" style="fill:#ffa8a7"></path><path d="M234.38,97.46h5.94A17.66,17.66,0,0,1,258,115.11v44.36a0,0,0,0,1,0,0H216.72a0,0,0,0,1,0,0V115.11A17.66,17.66,0,0,1,234.38,97.46Z" style="fill:#263238"></path><path d="M260.48,149c-6.91-7.26-10.44-8-14.64-8l8,23.5S267,173.2,274.7,178l4.89-10.78S267.39,156.23,260.48,149Z" style="fill:#ffa8a7"></path><path d="M213.78,202c-2.57,5.54-5.88,11.43-2.53,17.13s30.56,0,30.56,0V202Z" style="fill:#263238"></path><path d="M243.22,141c3-.25,6.4-.16,10,5.9s5.62,9.46,4.48,18.28-5.4,15.62-5.71,18.92.48,19.16.48,19.16-5.26,7.51-18.34,7.86A26,26,0,0,1,213.78,202l10-17.94-2.56-36.46,9.77-5.85Z" style="fill:#3EB4F7"></path><path d="M243.22,141c3-.25,6.4-.16,10,5.9s5.62,9.46,4.48,18.28-5.4,15.62-5.71,18.92.48,19.16.48,19.16-5.26,7.51-18.34,7.86A26,26,0,0,1,213.78,202l10-17.94-2.56-36.46,9.77-5.85Z" style="fill:#e0e0e0"></path><path d="M231,153.9h0a7.21,7.21,0,0,1-7.21-7.22v-21H231Z" style="fill:#263238"></path><path d="M251.2,105.8c2.17,1.29,4.87,6.77,4.6,18.25-.22,9.74-3.38,12.14-5,12.84s-4.64.27-7.62-.23v5.85s4.11,4.77,3.85,7.44-5.93,3.32-9.77.7a25,25,0,0,1-6.31-6.6V129.92s-2,2.68-5.28.5-3.41-7.57-1.5-9.5,6-1.33,6.78,1.35c0,0,4.74.17,11-3.29A17.76,17.76,0,0,0,251.2,105.8Z" style="fill:#ffa8a7"></path><path d="M244.93,121.61a1.22,1.22,0,1,1-2.44.11,1.22,1.22,0,1,1,2.44-.11Z" style="fill:#263238"></path><path d="M242.72,117.86l-2.54,1.57a1.56,1.56,0,0,1,.5-2.11A1.47,1.47,0,0,1,242.72,117.86Z" style="fill:#263238"></path><path d="M245.26,129.86l2.84.91a1.47,1.47,0,0,1-1.85,1A1.57,1.57,0,0,1,245.26,129.86Z" style="fill:#f28f8f"></path><path d="M255,117.85l-2.48-1.72a1.44,1.44,0,0,1,2.06-.42A1.59,1.59,0,0,1,255,117.85Z" style="fill:#263238"></path><path d="M254.4,120.72a1.23,1.23,0,1,1-1.29-1.21A1.25,1.25,0,0,1,254.4,120.72Z" style="fill:#263238"></path><polygon points="248.62 120.02 248.82 127.39 252.7 126.19 248.62 120.02" style="fill:#f28f8f"></polygon><path d="M243.22,136.66c-2.47-.28-7.43-1.78-8.53-3.45a4.47,4.47,0,0,0,1.67,2.68c1.62,1.55,6.86,2.67,6.86,2.67Z" style="fill:#f28f8f"></path><polygon points="217.33 302.98 137.76 257.04 305.28 160.32 384.85 206.26 217.33 302.98" style="fill:#3EB4F7"></polygon><polygon points="217.33 302.98 137.76 257.04 305.28 160.32 384.85 206.26 217.33 302.98" style="fill:#fff;opacity:0.4"></polygon><polygon points="137.76 257.04 137.76 348.92 141.95 351.34 141.95 288.47 213.15 329.57 213.15 392.44 217.33 394.86 217.33 302.98 137.76 257.04" style="fill:#3EB4F7"></polygon><polygon points="137.76 257.04 137.76 348.92 141.95 351.34 141.95 288.47 213.15 329.57 213.15 392.44 217.33 394.86 217.33 302.98 137.76 257.04" style="opacity:0.30000000000000004"></polygon><polygon points="141.95 351.34 146.14 348.92 146.14 290.89 141.95 288.47 141.95 351.34" style="fill:#3EB4F7"></polygon><polygon points="141.95 351.34 146.14 348.92 146.14 290.89 141.95 288.47 141.95 351.34" style="opacity:0.5"></polygon><polygon points="217.33 394.86 221.52 392.44 221.52 329.57 380.66 237.69 380.66 300.56 384.85 298.14 384.85 206.26 217.33 302.98 217.33 394.86" style="fill:#3EB4F7"></polygon><polygon points="217.33 394.86 221.52 392.44 221.52 329.57 380.66 237.69 380.66 300.56 384.85 298.14 384.85 206.26 217.33 302.98 217.33 394.86" style="opacity:0.1"></polygon><polygon points="221.52 324.74 221.52 305.4 271.78 276.38 271.78 295.72 221.52 324.74" style="fill:#3EB4F7"></polygon><polygon points="221.52 324.74 221.52 305.4 271.78 276.38 271.78 295.72 221.52 324.74" style="opacity:0.30000000000000004"></polygon><polygon points="275.96 293.31 275.96 273.96 326.22 244.95 326.22 264.29 275.96 293.31" style="fill:#3EB4F7"></polygon><polygon points="275.96 293.31 275.96 273.96 326.22 244.95 326.22 264.29 275.96 293.31" style="opacity:0.30000000000000004"></polygon><polygon points="330.41 261.87 330.41 242.53 380.66 213.51 380.66 232.86 330.41 261.87" style="fill:#3EB4F7"></polygon><polygon points="330.41 261.87 330.41 242.53 380.66 213.51 380.66 232.86 330.41 261.87" style="opacity:0.30000000000000004"></polygon><path d="M255,286.05v1.55c0,.85-2,2.7-4.47,4.12l-7.82,4.52c-2.47,1.42-4.47,1.89-4.47,1v-1.54Z" style="fill:#263238"></path><path d="M309.47,254.62v1.55c0,.85-2,2.7-4.47,4.12l-7.82,4.52c-2.46,1.42-4.46,1.88-4.46,1v-1.55Z" style="fill:#263238"></path><path d="M363.91,223.19v1.54c0,.86-2,2.7-4.46,4.13l-7.83,4.51c-2.46,1.43-4.46,1.89-4.46,1v-1.55Z" style="fill:#263238"></path><polygon points="380.66 300.56 376.48 298.14 376.48 240.11 380.66 237.69 380.66 300.56" style="fill:#3EB4F7"></polygon><polygon points="380.66 300.56 376.48 298.14 376.48 240.11 380.66 237.69 380.66 300.56" style="opacity:0.30000000000000004"></polygon><path d="M263.4,212.48v-.35a2,2,0,0,1,.89-1.55L317,180.18a2,2,0,0,1,1.79,0l10.78,6.22a2,2,0,0,1,.89,1.55v.36a2,2,0,0,1-.9,1.54l-52.65,30.4a2,2,0,0,1-1.79,0L264.29,214A2,2,0,0,1,263.4,212.48Z" style="fill:#3EB4F7"></path><path d="M263.4,212.48v-.35a2,2,0,0,1,.89-1.55L317,180.18a2,2,0,0,1,1.79,0l10.78,6.22a2,2,0,0,1,.89,1.55v.36a2,2,0,0,1-.9,1.54l-52.65,30.4a2,2,0,0,1-1.79,0L264.29,214A2,2,0,0,1,263.4,212.48Z" style="fill:#fff;opacity:0.7000000000000001"></path><path d="M264.29,211.61l10.78,6.23a2,2,0,0,0,1.79,0l52.65-30.4a.55.55,0,0,0,0-1l-10.78-6.22a2,2,0,0,0-1.79,0l-52.66,30.4C263.8,210.87,263.8,211.33,264.29,211.61Z" style="fill:#3EB4F7"></path><path d="M264.29,211.61l10.78,6.23a2,2,0,0,0,1.79,0l52.65-30.4a.55.55,0,0,0,0-1l-10.78-6.22a2,2,0,0,0-1.79,0l-52.66,30.4C263.8,210.87,263.8,211.33,264.29,211.61Z" style="fill:#fff;opacity:0.9"></path><path d="M197.29,241.43,229,259.75a2,2,0,0,0,1.79,0l23.34-13.48a.54.54,0,0,0,0-1l-31.72-18.31a1.93,1.93,0,0,0-1.78,0L197.29,240.4C196.79,240.69,196.79,241.15,197.29,241.43Z" style="fill:#3EB4F7"></path><path d="M197.29,241.43,229,259.75a2,2,0,0,0,1.79,0l23.34-13.48a.54.54,0,0,0,0-1l-31.72-18.31a1.93,1.93,0,0,0-1.78,0L197.29,240.4C196.79,240.69,196.79,241.15,197.29,241.43Z" style="fill:#fff;opacity:0.8"></path><path d="M220.63,226.93l-22.17,12.79L229,257.36a2,2,0,0,0,1.79,0L253,244.56l-30.55-17.63A1.93,1.93,0,0,0,220.63,226.93Z" style="fill:#3EB4F7"></path><path d="M220.63,226.93l-22.17,12.79L229,257.36a2,2,0,0,0,1.79,0L253,244.56l-30.55-17.63A1.93,1.93,0,0,0,220.63,226.93Z" style="fill:#fff;opacity:0.7000000000000001"></path><path d="M197.29,238.21,229,256.52a2,2,0,0,0,1.79,0l23.34-13.47a.55.55,0,0,0,0-1L222.41,223.7a2,2,0,0,0-1.78,0l-23.34,13.48A.54.54,0,0,0,197.29,238.21Z" style="fill:#3EB4F7"></path><path d="M197.29,238.21,229,256.52a2,2,0,0,0,1.79,0l23.34-13.47a.55.55,0,0,0,0-1L222.41,223.7a2,2,0,0,0-1.78,0l-23.34,13.48A.54.54,0,0,0,197.29,238.21Z" style="fill:#fff;opacity:0.9"></path><path d="M214.87,219.13c-1.05,2.86.56,5.17,3.61,5.15a8.55,8.55,0,0,0,7.43-5.21c1.06-2.86-.56-5.17-3.61-5.15A8.55,8.55,0,0,0,214.87,219.13Z" style="fill:#3EB4F7"></path><path d="M214.87,219.13c-1.05,2.86.56,5.17,3.61,5.15a8.55,8.55,0,0,0,7.43-5.21c1.06-2.86-.56-5.17-3.61-5.15A8.55,8.55,0,0,0,214.87,219.13Z" style="opacity:0.1"></path><path d="M217.4,232.7c-2.39,6.47,1.27,11.7,8.18,11.66S240,239,242.4,232.56s-1.28-11.69-8.18-11.66S219.78,226.22,217.4,232.7Z" style="fill:#455a64"></path><path d="M223,214l-4.14,2.89-4.14,2.89c-1.37,5.43-1.78,13.91,3.31,21.21l23.82-16.64C236.71,217,228.53,214.54,223,214Z" style="fill:#455a64"></path><path d="M225.39,214.39s.74,6.55-4.17,9.52c0,0,4.62-1.27,6-4.52S225.39,214.39,225.39,214.39Z" style="fill:#263238"></path><path d="M226,215.13a18.13,18.13,0,0,0-7.2-5.91l-3.32,2.36-.37.26-3.33,2.36a18.21,18.21,0,0,0,3.18,8.72h0a4.11,4.11,0,0,0,3.51,1.56,9,9,0,0,0,7.81-5.51,4.13,4.13,0,0,0-.3-3.86Z" style="fill:#37474f"></path><path d="M211.89,212.42a2.49,2.49,0,0,0,2.53,3.58,5.93,5.93,0,0,0,5.16-3.64,2.49,2.49,0,0,0-2.52-3.58A6,6,0,0,0,211.89,212.42Z" style="fill:#455a64"></path><path d="M218.71,220.55a4.66,4.66,0,0,0-3.69-2,1.43,1.43,0,0,0-1.38.74h0L203.82,243h0a1.55,1.55,0,0,0,.22,1.37,4.65,4.65,0,0,0,3.7,2,1.42,1.42,0,0,0,1.38-.74h0L218.92,222h0A1.49,1.49,0,0,0,218.71,220.55Z" style="fill:#455a64"></path><path d="M230.4,278.62a4.6,4.6,0,0,0-.11-1,15.56,15.56,0,0,0-6.33-9.45H210.71a15.57,15.57,0,0,0-6.34,9.45,4.53,4.53,0,0,0-.1,1,1.55,1.55,0,0,0,0,.18c.12,1.83,1.38,3.64,3.8,5,5.11,3,13.38,3,18.49,0,2.42-1.4,3.68-3.21,3.8-5A1.55,1.55,0,0,0,230.4,278.62Z" style="fill:#455a64"></path><ellipse cx="217.33" cy="271.55" rx="8.88" ry="5.13" style="fill:#37474f"></ellipse><path d="M215.23,270.33a1.28,1.28,0,0,0,0,2.43,4.66,4.66,0,0,0,4.21,0,1.28,1.28,0,0,0,0-2.43A4.66,4.66,0,0,0,215.23,270.33Z" style="fill:#455a64"></path><path d="M203.07,247.15a1.28,1.28,0,0,0,0,2.43,4.66,4.66,0,0,0,4.21,0,1.28,1.28,0,0,0,0-2.43A4.66,4.66,0,0,0,203.07,247.15Z" style="fill:#3EB4F7"></path><path d="M203.07,247.15a1.28,1.28,0,0,0,0,2.43,4.66,4.66,0,0,0,4.21,0,1.28,1.28,0,0,0,0-2.43A4.66,4.66,0,0,0,203.07,247.15Z" style="opacity:0.30000000000000004"></path><polygon points="208.04 247.88 220.19 271.06 214.48 272.04 202.31 248.83 208.04 247.88" style="fill:#455a64"></polygon><path d="M203.75,241.13h0a2,2,0,0,0-2.06.72,6.57,6.57,0,0,0-1.51,5.75,2.16,2.16,0,0,0,1.17,1.55v0l4.54,1.7,2.26-8.1Z" style="fill:#37474f"></path><path d="M206.17,243.53a6.58,6.58,0,0,0-1.52,5.76c.5,1.83,2,2.22,3.32.87a6.56,6.56,0,0,0,1.52-5.75C209,242.58,207.5,242.19,206.17,243.53Z" style="fill:#263238"></path><path d="M183.34,263.62c4.22-4.3,6.69-15.05,2.58-18.46H165c-4.11,3.41-1.64,14.15,2.58,18.46l.11.12.15.14a4.17,4.17,0,0,0,.38.34l.1.08.32.24a5.49,5.49,0,0,0,.54.35,13.92,13.92,0,0,0,12.57,0h0c.18-.1.36-.22.55-.35l.29-.23.13-.09.36-.33.17-.17Z" style="fill:#3EB4F7"></path><path d="M183.34,263.62c4.22-4.3,6.69-15.05,2.58-18.46H165c-4.11,3.41-1.64,14.15,2.58,18.46l.11.12.15.14a4.17,4.17,0,0,0,.38.34l.1.08.32.24a5.49,5.49,0,0,0,.54.35,13.92,13.92,0,0,0,12.57,0h0c.18-.1.36-.22.55-.35l.29-.23.13-.09.36-.33.17-.17Z" style="fill:#fff;opacity:0.7000000000000001"></path><ellipse cx="175.45" cy="248.78" rx="12.23" ry="7.06" style="fill:#3EB4F7"></ellipse><ellipse cx="175.45" cy="248.78" rx="12.23" ry="7.06" style="fill:#fff;opacity:0.9"></ellipse><path d="M170.19,245.74c-2.9,1.68-2.9,4.4,0,6.08a11.69,11.69,0,0,0,10.53,0c2.9-1.68,2.9-4.4,0-6.08A11.63,11.63,0,0,0,170.19,245.74Z" style="fill:#3EB4F7"></path><path d="M170.19,245.74c-2.9,1.68-2.9,4.4,0,6.08a11.69,11.69,0,0,0,10.53,0c2.9-1.68,2.9-4.4,0-6.08A11.63,11.63,0,0,0,170.19,245.74Z" style="fill:#fff;opacity:0.7000000000000001"></path><path d="M180.72,248.62a11.69,11.69,0,0,0-10.53,0,5,5,0,0,0-1.74,1.6,5,5,0,0,0,1.74,1.6,11.69,11.69,0,0,0,10.53,0,5,5,0,0,0,1.74-1.6A5,5,0,0,0,180.72,248.62Z" style="fill:#3EB4F7"></path><path d="M180.72,248.62a11.69,11.69,0,0,0-10.53,0,5,5,0,0,0-1.74,1.6,5,5,0,0,0,1.74,1.6,11.69,11.69,0,0,0,10.53,0,5,5,0,0,0,1.74-1.6A5,5,0,0,0,180.72,248.62Z" style="opacity:0.30000000000000004"></path><path d="M177.35,250.88a15.58,15.58,0,0,0,6.48-8.15c1.93-5.64.79-12.46-.94-15.28-2.34-3.82-8-3.39-6.33,3s2.71,13.3.06,17.92Z" style="fill:#37474f"></path><path d="M177.55,249.72a.27.27,0,0,1-.17-.06.26.26,0,0,1,0-.37,18.62,18.62,0,0,0,4.76-13.87c-.29-4.63-2-8-2.65-8.51a.27.27,0,0,1,0-.37.26.26,0,0,1,.36,0c.86.74,2.54,4.34,2.82,8.86a19.13,19.13,0,0,1-4.89,14.26A.24.24,0,0,1,177.55,249.72Z" style="fill:#fff"></path><path d="M172.47,250.88a2.45,2.45,0,0,0-1-1.36,10.06,10.06,0,0,0-1.88-.81c-1.13-.41-2.57-1-2.72-2.36a3.71,3.71,0,0,1,.18-1.44,3.17,3.17,0,0,0,.19-2c-.25-.6-.89-.92-1.44-1.28a4.62,4.62,0,0,1-1.51-1.44,3,3,0,0,1-.45-1.75c.11-1.26,1.32-2.09,1.36-3.34.05-1.83-4.23-4.31-1.95-6,2.92-2.21,7.49.35,8.8,2.23s1.31,2.72,3.7,4.31c2,1.32,4.32,1.59,4.32,4.19s-3.33,2.72-.71,5.67c1.58,1.77-1,3.3-2,5.4C175.73,250.88,174.08,250.8,172.47,250.88Z" style="fill:#455a64"></path><path d="M175.11,251.11h0a.26.26,0,0,1-.25-.27c.58-15.11-7.11-20.41-8.65-20.83a.26.26,0,0,1,.14-.5c2.6.71,9.57,7.09,9,21.35A.26.26,0,0,1,175.11,251.11Z" style="fill:#fff"></path><path d="M173.89,240.37a.27.27,0,0,1-.17-.06c-2.23-2-6.59-1.92-6.64-1.92a.26.26,0,0,1-.26-.25.27.27,0,0,1,.25-.27c.19,0,4.61-.05,7,2a.26.26,0,0,1-.17.45Z" style="fill:#fff"></path><path d="M351.56,198.86l3.76-45.64a4.29,4.29,0,0,0-1.88-3.78,4.79,4.79,0,0,0-4.33.08l-50,28.86a5.48,5.48,0,0,0-2.45,3.85l-3.76,45.64a4.29,4.29,0,0,0,1.88,3.78,4.79,4.79,0,0,0,4.33-.08l50-28.86A5.5,5.5,0,0,0,351.56,198.86Z" style="fill:#3EB4F7"></path><path d="M351.56,198.86l3.76-45.64a4.29,4.29,0,0,0-1.88-3.78,4.79,4.79,0,0,0-4.33.08l-50,28.86a5.48,5.48,0,0,0-2.45,3.85l-3.76,45.64a4.29,4.29,0,0,0,1.88,3.78,4.79,4.79,0,0,0,4.33-.08l50-28.86A5.5,5.5,0,0,0,351.56,198.86Z" style="fill:#fff;opacity:0.8"></path><path d="M351.56,198.86l3.76-45.64a4.29,4.29,0,0,0-1.88-3.78,4.79,4.79,0,0,0-4.33.08l-50,28.86a5,5,0,0,0-1.63,1.64l7.77,4.48V228l43.83-25.31A5.48,5.48,0,0,0,351.56,198.86Z" style="fill:#3EB4F7"></path><path d="M351.56,198.86l3.76-45.64a4.29,4.29,0,0,0-1.88-3.78,4.79,4.79,0,0,0-4.33.08l-50,28.86a5,5,0,0,0-1.63,1.64l7.77,4.48V228l43.83-25.31A5.48,5.48,0,0,0,351.56,198.86Z" style="fill:#fff;opacity:0.9"></path><path d="M297.12,230.29l3.76-45.64a5.54,5.54,0,0,1,2.44-3.86l50-28.85c1.24-.71,2.14-.14,2,1.28l-3.76,45.64a5.5,5.5,0,0,1-2.44,3.85l-50,28.86C297.9,232.28,297,231.71,297.12,230.29Z" style="fill:#3EB4F7"></path><path d="M297.12,230.29l3.76-45.64a5.54,5.54,0,0,1,2.44-3.86l50-28.85c1.24-.71,2.14-.14,2,1.28l-3.76,45.64a5.5,5.5,0,0,1-2.44,3.85l-50,28.86C297.9,232.28,297,231.71,297.12,230.29Z" style="fill:#fff;opacity:0.7000000000000001"></path><path d="M322.91,193.67a8.65,8.65,0,0,1,3.66-6.15c1.83-1.06,3.15,0,3,2.32a8.67,8.67,0,0,1-3.66,6.15C324,197,322.72,196,322.91,193.67Z" style="fill:#3EB4F7"></path><path d="M322.91,193.67a8.65,8.65,0,0,1,3.66-6.15c1.83-1.06,3.15,0,3,2.32a8.67,8.67,0,0,1-3.66,6.15C324,197,322.72,196,322.91,193.67Z" style="fill:#fff;opacity:0.4"></path><polygon points="322.03 208.68 338.78 199.01 336.69 197.8 319.94 207.47 322.03 208.68" style="fill:#3EB4F7"></polygon><polygon points="322.03 208.68 338.78 199.01 336.69 197.8 319.94 207.47 322.03 208.68" style="fill:#fff;opacity:0.9"></polygon><path d="M342.07,221.28l-15,8.64a1.87,1.87,0,0,1-1,.22,2,2,0,0,1-.81-.21h0l-6.59-3.8,0,0a2,2,0,0,1-.86-1.53v-.35c0-.57.4-.81.89-.52l4,2.29.89.52-.2-1-3.46-18,2.09,1.21L338.78,199l4,20.74A1.53,1.53,0,0,1,342.07,221.28Z" style="fill:#3EB4F7"></path><path d="M342.07,221.28l-15,8.64a1.87,1.87,0,0,1-1,.22,2,2,0,0,1-.81-.21h0l-6.59-3.8,0,0a2,2,0,0,1-.86-1.53v-.35c0-.57.4-.81.89-.52l4,2.29.89.52-.2-1-3.46-18,2.09,1.21L338.78,199l4,20.74A1.53,1.53,0,0,1,342.07,221.28Z" style="fill:#fff;opacity:0.7000000000000001"></path><polygon points="318.12 223.63 323.22 220.68 324.26 227.55 318.12 223.63" style="fill:#3EB4F7"></polygon><polygon points="318.12 223.63 323.22 220.68 324.26 227.55 318.12 223.63" style="fill:#fff;opacity:0.7000000000000001"></polygon><path d="M322,208.68l-2.09-1.21,3.46,18c.12.55-.2.78-.69.49l-4-2.29c-.49-.29-.89,0-.89.52v.35a2,2,0,0,0,.86,1.53l0,0,6.59,3.8h0a2,2,0,0,0,.81.21Z" style="fill:#3EB4F7"></path><path d="M322,208.68l-2.09-1.21,3.46,18c.12.55-.2.78-.69.49l-4-2.29c-.49-.29-.89,0-.89.52v.35a2,2,0,0,0,.86,1.53l0,0,6.59,3.8h0a2,2,0,0,0,.81.21Z" style="fill:#fff;opacity:0.8"></path><path d="M268,232.86c3.07-.23,4.06-1.36,4.56-2.72s.68-2.85-.51-6-8-7.28-15.07-5.77-8.05,6.91-7.67,8.36,4.63,5.13,10.14,5.76A49.49,49.49,0,0,0,268,232.86Z" style="fill:#3EB4F7"></path><path d="M268,232.86c3.07-.23,4.06-1.36,4.56-2.72s.68-2.85-.51-6-8-7.28-15.07-5.77-8.05,6.91-7.67,8.36,4.63,5.13,10.14,5.76A49.49,49.49,0,0,0,268,232.86Z" style="fill:#fff;opacity:0.7000000000000001"></path><path d="M264.41,223a2.3,2.3,0,0,1,2.85,0,5.19,5.19,0,0,1,2.14,2.31c.31.81.16,1.53-.19,1.53s-.61-.74-1.95-1.86S264.11,223.42,264.41,223Z" style="fill:#3EB4F7"></path><path d="M264.41,223a2.3,2.3,0,0,1,2.85,0,5.19,5.19,0,0,1,2.14,2.31c.31.81.16,1.53-.19,1.53s-.61-.74-1.95-1.86S264.11,223.42,264.41,223Z" style="fill:#fff;opacity:0.9"></path><path d="M221.22,147.62c-3.3,2.22-7.21,4.85-6.67,13.51s7,32.55,7.44,35.46,18,17,21.23,19.78c3.71,3.23,5.11,3.91,6.79,5.76s3.26,6.57,5,8.62c2.73,3.17,8.61,3.24,11.32,2.87s1-3.66,0-6-3.68-5.53-2.92-6.08c.52-.37,3.35.13,5.54,2,1.69,1.44,1.89,2.85,2.84,3.51,1.59,1.12,2.12-.86.48-4s-4.14-5.39-6.61-6.17a5.45,5.45,0,0,0,3.13-.7c1.36-.84,1.84-2.74.16-2.24-1,.29-2,0-4,0-6.28,0-8.17,2.28-15.44-4.74s-17-16.57-17-16.57-3.27-19.9-4.74-28.71C226.52,156.33,226,151.36,221.22,147.62Z" style="fill:#ffa8a7"></path><path d="M279.59,167.19,292,140.91l7,2.89s-10.29,31.14-11.77,34.52c-.87,2-3.66,4.43-7.7,2.46-.88-.43-2.63-1.46-4.8-2.81" style="fill:#ffa8a7"></path><path d="M296.37,151.63c.86-2.57,3.59-5.31,4-6.4a5.11,5.11,0,0,0,.35-2.73l-3.19.32Z" style="fill:#ffa8a7"></path><path d="M289.79,145.5c.52-1.19.61-5.36,0-7.76s.86-5.4.49-7.09.71-2.2,1.69-1.59a4.31,4.31,0,0,1,2,3.55c.05,1.75.16,6.2-.55,8.37S289.79,145.5,289.79,145.5Z" style="fill:#ffa8a7"></path><path d="M291.44,141.41c.19.54.91,1.29,3.24.89l4.29,1.5,1.75-.1a4.71,4.71,0,0,1-6.19-.66S291.38,143.43,291.44,141.41Z" style="fill:#f28f8f"></path><path d="M303.44,139.65c-2.69,2.1-2.31,4.83.86,6.11a11.81,11.81,0,0,0,10.59-1.48c2.69-2.1,2.3-4.84-.86-6.12A11.84,11.84,0,0,0,303.44,139.65Z" style="fill:#3EB4F7"></path><path d="M303.44,139.65c-2.69,2.1-2.31,4.83.86,6.11a11.81,11.81,0,0,0,10.59-1.48c2.69-2.1,2.3-4.84-.86-6.12A11.84,11.84,0,0,0,303.44,139.65Z" style="fill:#fff;opacity:0.7000000000000001"></path><path d="M316.76,124.32l-9.87,1.38L297,127.08c.22,6.4,2.39,13.57,5.22,17.22l14.24-2C318.19,138,318.3,130.53,316.76,124.32Z" style="fill:#3EB4F7"></path><path d="M316.76,124.32l-9.87,1.38L297,127.08c.22,6.4,2.39,13.57,5.22,17.22l14.24-2C318.19,138,318.3,130.53,316.76,124.32Z" style="fill:#fff;opacity:0.7000000000000001"></path><path d="M299.54,124.09c-3.62,2.21-3.24,4.93.85,6.06a20.21,20.21,0,0,0,14-2c3.62-2.22,3.24-4.93-.85-6.07A20.22,20.22,0,0,0,299.54,124.09Z" style="fill:#3EB4F7"></path><path d="M299.54,124.09c-3.62,2.21-3.24,4.93.85,6.06a20.21,20.21,0,0,0,14-2c3.62-2.22,3.24-4.93-.85-6.07A20.22,20.22,0,0,0,299.54,124.09Z" style="fill:#fff;opacity:0.9"></path><path d="M301,125c-3,1.53-2.71,3.3.55,4a19.93,19.93,0,0,0,11.27-1.58c2.95-1.53,2.71-3.3-.56-4A19.91,19.91,0,0,0,301,125Z" style="fill:#3EB4F7"></path><path d="M301,125c-3,1.53-2.71,3.3.55,4a19.93,19.93,0,0,0,11.27-1.58c2.95-1.53,2.71-3.3-.56-4A19.91,19.91,0,0,0,301,125Z" style="fill:#fff;opacity:0.4"></path><path d="M301.37,127.34a6,6,0,0,0-1.45,1,5.9,5.9,0,0,0,1.67.56,19.93,19.93,0,0,0,11.27-1.58,5.69,5.69,0,0,0,1.45-1,5.9,5.9,0,0,0-1.67-.56A19.93,19.93,0,0,0,301.37,127.34Z" style="fill:#3EB4F7"></path><path d="M301.37,127.34a6,6,0,0,0-1.45,1,5.9,5.9,0,0,0,1.67.56,19.93,19.93,0,0,0,11.27-1.58,5.69,5.69,0,0,0,1.45-1,5.9,5.9,0,0,0-1.67-.56A19.93,19.93,0,0,0,301.37,127.34Z" style="opacity:0.30000000000000004"></path><path d="M299.27,144a6.42,6.42,0,0,1-2.49-.12c-1.12-.3-2.18-1.38-3.23-3.31-.88-1.62-2.39-5.22-1.75-7.21.82-2.53,3.75-2.89,5.7-3.13l.67-.09.43,3.07-.72.09c-1.1.13-2.93.36-3.14,1-.28,1.24,1.82,6.07,2.89,6.6a4.84,4.84,0,0,0,2.82-.46l1.4,2.76A8.65,8.65,0,0,1,299.27,144Z" style="fill:#3EB4F7"></path><path d="M299.27,144a6.42,6.42,0,0,1-2.49-.12c-1.12-.3-2.18-1.38-3.23-3.31-.88-1.62-2.39-5.22-1.75-7.21.82-2.53,3.75-2.89,5.7-3.13l.67-.09.43,3.07-.72.09c-1.1.13-2.93.36-3.14,1-.28,1.24,1.82,6.07,2.89,6.6a4.84,4.84,0,0,0,2.82-.46l1.4,2.76A8.65,8.65,0,0,1,299.27,144Z" style="fill:#fff;opacity:0.7000000000000001"></path><path d="M295.6,134.31c-1.91,0-7.52,2.23-7.64,4.25s3.69,1.87,3.69,1.87a1.49,1.49,0,0,0,.3,1.89c.95.82,8.15-1.68,8.15-1.68a8.12,8.12,0,0,0-1.13-2.31,2.19,2.19,0,0,0-1.46-.82S298.44,134.31,295.6,134.31Z" style="fill:#ffa8a7"></path></g><g id="freepik--Furniture--inject-1--inject-211"><polygon points="152.71 232.79 144.33 227.96 152.71 225.54 152.71 232.79" style="fill:#e0e0e0"></polygon><g style="opacity:0.5;mix-blend-mode:multiply"><polyline points="152.71 225.54 152.71 232.79 144.33 227.96" style="fill:#e0e0e0"></polyline></g><polygon points="102.45 254.56 102.45 262.26 56.39 235.67 56.39 227.96 102.45 254.56" style="fill:#e0e0e0"></polygon><g style="opacity:0.5;mix-blend-mode:multiply"><polygon points="102.45 254.56 102.45 262.26 56.39 235.67 56.39 227.96 102.45 254.56" style="fill:#e0e0e0"></polygon></g><polygon points="52.2 167.51 98.27 194.11 98.27 256.97 52.2 230.38 52.2 167.51" style="fill:#e0e0e0"></polygon><polygon points="98.27 194.11 161.08 157.84 161.08 220.7 98.27 256.97 98.27 194.11" style="fill:#ebebeb"></polygon><polygon points="161.08 157.84 115.02 131.24 52.2 167.51 98.27 194.11 161.08 157.84" style="fill:#f5f5f5"></polygon><polygon points="102.45 196.53 156.9 165.09 156.9 179.6 102.45 211.03 102.45 196.53" style="fill:#e0e0e0"></polygon><g style="opacity:0.5;mix-blend-mode:multiply"><path d="M123.39,185.64c0,.67,2,.06,4.47-1.36l7.82-4.52c2.47-1.42,4.46-3.12,4.46-3.79v-1.21l-16.76,9.68Z" style="fill:#e0e0e0"></path></g><polygon points="102.45 215.87 156.9 184.44 156.9 198.94 102.45 230.38 102.45 215.87" style="fill:#e0e0e0"></polygon><g style="opacity:0.5;mix-blend-mode:multiply"><path d="M123.39,205c0,.67,2,0,4.47-1.37l7.82-4.52c2.47-1.42,4.46-3.12,4.46-3.78v-1.21l-16.76,9.67Z" style="fill:#e0e0e0"></path></g><polygon points="102.45 235.21 156.9 203.78 156.9 218.29 102.45 249.72 102.45 235.21" style="fill:#e0e0e0"></polygon><g style="opacity:0.5;mix-blend-mode:multiply"><path d="M123.39,224.33c0,.67,2,.06,4.47-1.37l7.82-4.51c2.47-1.43,4.46-3.12,4.46-3.79v-1.21l-16.76,9.67Z" style="fill:#e0e0e0"></path></g><polygon points="102.45 262.26 106.64 259.85 106.64 252.14 102.45 254.56 102.45 262.26" style="fill:#e0e0e0"></polygon><polygon points="152.71 232.79 156.9 230.38 156.9 223.12 152.71 225.54 152.71 232.79" style="fill:#e0e0e0"></polygon><path d="M79.13,170.13c4.22-4.31,6.7-15,2.58-18.47H60.78c-4.11,3.42-1.64,14.16,2.58,18.46l.11.12.15.14a4.17,4.17,0,0,0,.38.34l.1.08.32.24a5.49,5.49,0,0,0,.54.35,13.92,13.92,0,0,0,12.57,0h0a5.6,5.6,0,0,0,.55-.35l.29-.22.13-.1.37-.33.16-.16Z" style="fill:#ebebeb"></path><path d="M62.6,150.29c-4.78,2.76-4.78,7.23,0,10s12.52,2.76,17.29,0,4.78-7.22,0-10S67.37,147.53,62.6,150.29Z" style="fill:#f5f5f5"></path><path d="M66,152.24c-2.9,1.68-2.9,4.4,0,6.08a11.63,11.63,0,0,0,10.53,0c2.9-1.68,2.9-4.4,0-6.08A11.69,11.69,0,0,0,66,152.24Z" style="fill:#e0e0e0"></path><path d="M76.51,155.13a11.63,11.63,0,0,0-10.53,0,4.85,4.85,0,0,0-1.74,1.59,4.87,4.87,0,0,0,1.74,1.6,11.63,11.63,0,0,0,10.53,0,4.87,4.87,0,0,0,1.74-1.6A4.85,4.85,0,0,0,76.51,155.13Z" style="fill:#e0e0e0"></path><g style="opacity:0.5;mix-blend-mode:multiply"><path d="M76.51,155.13a11.63,11.63,0,0,0-10.53,0,4.85,4.85,0,0,0-1.74,1.59,4.87,4.87,0,0,0,1.74,1.6,11.63,11.63,0,0,0,10.53,0,4.87,4.87,0,0,0,1.74-1.6A4.85,4.85,0,0,0,76.51,155.13Z" style="fill:#e0e0e0"></path></g><path d="M66.63,156.72a23.84,23.84,0,0,1-3.81-5.06c-1.76-3.1-2.08-7.27-1.17-7.78s4.6,3.64,4.6,3.64a22.87,22.87,0,0,1-.39-5.31c.16-2.77.83-5.28,1.63-5.79s2.56,3,3.32,5.52S72,146.55,72,146.55a39.76,39.76,0,0,1,1.36-5.83c.92-2.62,1.76-3.22,2.41-3s1.08,1.49,1.27,5a34.91,34.91,0,0,1-.16,5s1.31-1.44,2.75-2.83c1.59-1.53,2.27-1.74,2.73-1.45s.58,2.67-1.88,7.12a25.08,25.08,0,0,1-4.65,6.12S72.45,158.92,66.63,156.72Z" style="fill:#ebebeb"></path><path d="M121.34,175.31l25-14.5c.49-.28.49-.74,0-1L112,140.25a2,2,0,0,0-1.79,0L85.43,154.58c-.49.29-.49.75,0,1l34.12,19.7A2,2,0,0,0,121.34,175.31Z" style="fill:#e0e0e0"></path><g style="opacity:0.5;mix-blend-mode:multiply"><path d="M121.34,175.31l25-14.5c.49-.28.49-.74,0-1L112,140.25a2,2,0,0,0-1.79,0L85.43,154.58c-.49.29-.49.75,0,1l34.12,19.7A2,2,0,0,0,121.34,175.31Z" style="fill:#e0e0e0"></path></g><path d="M85.41,154.55l28.18-17.92a1.91,1.91,0,0,1,1.77,0l10.15,5.86a1.11,1.11,0,0,1,.42,1.44l-.41.8a1.11,1.11,0,0,0,.42,1.44L146.39,158a.58.58,0,0,1,0,1.08l-25.1,16.16a1.83,1.83,0,0,1-1.76,0l-34.12-19.7A.57.57,0,0,1,85.41,154.55Z" style="fill:#ebebeb"></path></g><g id="freepik--Plant--inject-1--inject-211"><path d="M439.66,197.08c7.26-7.41,11.53-37.57,4.44-43.45h-36c-7.09,5.87-2.82,36,4.44,43.44l.19.2.25.25c.21.2.43.39.66.58l.17.14c.18.14.36.28.55.41a8.73,8.73,0,0,0,.94.6c6,3.45,15.66,3.45,21.64,0h0a8.73,8.73,0,0,0,.94-.6l.51-.39.22-.17c.22-.18.43-.37.63-.56l.29-.28Z" style="fill:#37474f"></path><path d="M411.19,151.26c-8.23,4.75-8.23,12.45,0,17.2s21.56,4.74,29.78,0,8.22-12.45,0-17.2S419.41,146.51,411.19,151.26Z" style="fill:#455a64"></path><path d="M415.14,153.54c-6,3.49-6,9.14,0,12.63s15.84,3.49,21.87,0,6-9.14,0-12.63S421.18,150.06,415.14,153.54Z" style="fill:#37474f"></path><path d="M437,159.54c-6-3.49-15.83-3.49-21.87,0a10.14,10.14,0,0,0-3.62,3.31,10.16,10.16,0,0,0,3.62,3.32c6,3.49,15.83,3.49,21.87,0a10,10,0,0,0,3.62-3.32A10,10,0,0,0,437,159.54Z" style="fill:#e0e0e0"></path><g style="mix-blend-mode:multiply"><path d="M437,159.54c-6-3.49-15.83-3.49-21.87,0a10.14,10.14,0,0,0-3.62,3.31,10.16,10.16,0,0,0,3.62,3.32c6,3.49,15.83,3.49,21.87,0a10,10,0,0,0,3.62-3.32A10,10,0,0,0,437,159.54Z" style="fill:#263238"></path></g><path d="M432.82,162.87c1.75-5.3,4.19-15,13.26-22.27,9.3-7.48,18.47-13.4,15.31-18.31-2.88-4.46-11.54-5.12-21.44,2.52-9.61,7.4-13.95,24.38-13.1,35.64Z" style="fill:#3EB4F7"></path><g style="opacity:0.1"><path d="M432.82,162.87c1.75-5.3,4.19-15,13.26-22.27,9.3-7.48,18.47-13.4,15.31-18.31-2.88-4.46-11.54-5.12-21.44,2.52-9.61,7.4-13.95,24.38-13.1,35.64Z"></path></g><path d="M428.4,161.6h-.07a.5.5,0,0,1-.44-.57c3.44-26.61,20-38.39,28.09-38.78a.49.49,0,0,1,.54.48.53.53,0,0,1-.49.55c-6,.28-23.48,9.8-27.12,37.88A.51.51,0,0,1,428.4,161.6Z" style="fill:#fff"></path><path d="M419.59,164.11a9.46,9.46,0,0,0-5.14-7c-2.95-1.6-6.54,0-10-4.83s-.43-8.75-1-11.09-1.17-3.87-5.11-5.55-5-4.15-3.64-9.69,1.29-7.22-2.08-9.65-3.53-5.51,0-7.54,9.81-2,14.78,2.41,5.6,6.31,11.07,6.84,8.6.75,9.84,4,.6,5.77,0,8.81a6.36,6.36,0,0,0,3.48,7c2.39,1.13,6.37,2,7.85,6.36s-1.8,13.25-6,18.71C433.59,162.87,432.59,166.06,419.59,164.11Z" style="fill:#3EB4F7"></path><path d="M428.74,164.62h0a.51.51,0,0,1-.51-.52,62.69,62.69,0,0,0-5.59-24.71c-5.63-12.15-23.62-26.5-24.72-27.16a.47.47,0,0,1-.29-.63.55.55,0,0,1,.69-.31c.62.2,19.33,14.87,25.25,27.66a64,64,0,0,1,5.69,25.17A.5.5,0,0,1,428.74,164.62Z" style="fill:#fff"></path><path d="M416.84,130.15a.5.5,0,0,1-.24-.06c-3.77-2.07-12.78-.6-12.87-.58a.53.53,0,0,1-.59-.43.51.51,0,0,1,.42-.59c.38-.06,9.46-1.54,13.53.7a.51.51,0,0,1,.2.7A.5.5,0,0,1,416.84,130.15Z" style="fill:#fff"></path><path d="M427.81,155a.52.52,0,0,1-.25-1c4.24-2.3,7.48-8.8,7.51-8.86a.52.52,0,1,1,.93.45c-.14.28-3.43,6.86-7.95,9.32A.5.5,0,0,1,427.81,155Z" style="fill:#fff"></path></g></svg>